<?xml version="1.0" encoding="UTF-8"?> <svg xmlns="http://www.w3.org/2000/svg" width="396" height="356" viewBox="0 0 396 356" fill="none"><g clip-path="url(#clip0_19340_45645)"><path d="M206.925 128.169V95.3477" stroke="#41C7CF" stroke-width="2.78" stroke-linecap="round" stroke-linejoin="round"></path><path d="M209.615 91.853C209.615 93.3357 208.413 94.54 206.932 94.54C205.451 94.54 204.248 93.3357 204.248 91.853C204.248 90.3703 205.451 89.166 206.932 89.166C208.413 89.166 209.615 90.3703 209.615 91.853Z" stroke="#41C7CF" stroke-width="2.78" stroke-linecap="round" stroke-linejoin="round"></path><path d="M216.297 134.775V59.4417L212 56.0029V34.479" stroke="#41C7CF" stroke-width="2.78" stroke-linecap="round" stroke-linejoin="round"></path><path d="M178.378 69.3613C178.378 70.844 179.581 72.0483 181.062 72.0483C182.542 72.0483 183.745 70.844 183.745 69.3613C183.745 67.8786 182.542 66.6743 181.062 66.6743C179.581 66.6743 178.378 67.8786 178.378 69.3613Z" stroke="#41C7CF" stroke-width="2.78" stroke-linecap="round" stroke-linejoin="round"></path><path d="M187.771 139.021V98.8765L181.104 92.5279V71.9717" stroke="#41C7CF" stroke-width="2.78" stroke-linecap="round" stroke-linejoin="round"></path><path d="M207.821 55.2026C207.821 57.5903 205.888 59.5185 203.511 59.5185C201.133 59.5185 199.2 57.5833 199.2 55.2026C199.2 52.8219 201.133 50.8867 203.511 50.8867C205.888 50.8867 207.821 52.8219 207.821 55.2026Z" stroke="#41C7CF" stroke-width="2.78" stroke-linecap="round" stroke-linejoin="round"></path><path d="M196.962 149.463V82.7408L203.518 76.1765V59.4976" stroke="#41C7CF" stroke-width="2.78" stroke-linecap="round" stroke-linejoin="round"></path><path d="M226.176 128.816V84.5155L229.402 81.2855V63.4023" stroke="#41C7CF" stroke-width="2.78" stroke-linecap="round" stroke-linejoin="round"></path><path d="M232.058 60.4371C232.058 61.9198 230.855 63.1241 229.374 63.1241C227.893 63.1241 226.69 61.9198 226.69 60.4371C226.69 58.9544 227.893 57.7432 229.374 57.7432C230.855 57.7432 232.058 58.9474 232.058 60.4371Z" stroke="#41C7CF" stroke-width="2.78" stroke-linecap="round" stroke-linejoin="round"></path><path d="M280.558 34.6182C280.558 36.1009 279.355 37.3052 277.874 37.3052C276.393 37.3052 275.19 36.1009 275.19 34.6182C275.19 33.1354 276.393 31.9312 277.874 31.9312C279.355 31.9312 280.558 33.1354 280.558 34.6182Z" stroke="#41C7CF" stroke-width="2.78" stroke-linecap="round" stroke-linejoin="round"></path><path d="M180.186 106.012C180.186 107.494 178.983 108.699 177.502 108.699C176.021 108.699 174.818 107.494 174.818 106.012C174.818 104.529 176.021 103.325 177.502 103.325C178.983 103.325 180.186 104.529 180.186 106.012Z" stroke="#41C7CF" stroke-width="2.78" stroke-linecap="round" stroke-linejoin="round"></path><path d="M177.558 128.058V108.692" stroke="#41C7CF" stroke-width="2.78" stroke-linecap="round" stroke-linejoin="round"></path><path d="M168.047 129.297V102.983L175.055 95.9596V50.037L168.325 43.2986V34.8408" stroke="#41C7CF" stroke-width="2.78" stroke-linecap="round" stroke-linejoin="round"></path><path d="M148.204 69.9951C149.67 69.9951 150.86 68.8045 150.86 67.3359C150.86 65.8673 149.67 64.6768 148.204 64.6768C146.737 64.6768 145.548 65.8673 145.548 67.3359C145.548 68.8045 146.737 69.9951 148.204 69.9951Z" stroke="#41C7CF" stroke-width="2.78" stroke-linecap="round" stroke-linejoin="round"></path><path d="M131.845 50.3784C131.845 51.8472 130.656 53.0376 129.189 53.0376C127.722 53.0376 126.533 51.8472 126.533 50.3784C126.533 48.9096 127.722 47.7192 129.189 47.7192C130.656 47.7192 131.845 48.9096 131.845 50.3784Z" stroke="#41C7CF" stroke-width="2.78" stroke-linecap="round" stroke-linejoin="round"></path><path d="M171.543 99.4612L167.99 95.9041V84.6409H152.709L148.044 79.963L147.939 70.3984" stroke="#41C7CF" stroke-width="2.78" stroke-linecap="round" stroke-linejoin="round"></path><path d="M105.44 81.2373C105.44 83.3187 103.75 85.0102 101.672 85.0102C99.5928 85.0102 97.9033 83.3187 97.9033 81.2373C97.9033 79.1559 99.5928 77.4644 101.672 77.4644C103.75 77.4644 105.44 79.1559 105.44 81.2373Z" stroke="#41C7CF" stroke-width="2.78" stroke-linecap="round" stroke-linejoin="round"></path><path d="M172.232 30.2397C172.232 32.3211 170.542 34.0127 168.464 34.0127C166.385 34.0127 164.695 32.3211 164.695 30.2397C164.695 28.1584 166.385 26.4668 168.464 26.4668C170.542 26.4668 172.232 28.1584 172.232 30.2397Z" stroke="#41C7CF" stroke-width="2.78" stroke-linecap="round" stroke-linejoin="round"></path><path d="M215.761 30.3164C215.761 32.3978 214.072 34.0893 211.993 34.0893C209.914 34.0893 208.225 32.3978 208.225 30.3164C208.225 28.235 209.914 26.5435 211.993 26.5435C214.072 26.5435 215.761 28.235 215.761 30.3164Z" stroke="#41C7CF" stroke-width="2.78" stroke-linecap="round" stroke-linejoin="round"></path><path d="M256.961 55.0283C256.961 57.1097 255.272 58.8012 253.193 58.8012C251.114 58.8012 249.425 57.1097 249.425 55.0283C249.425 52.9469 251.114 51.2554 253.193 51.2554C255.272 51.2554 256.961 52.9469 256.961 55.0283Z" stroke="#41C7CF" stroke-width="2.78" stroke-linecap="round" stroke-linejoin="round"></path><path d="M158.751 130.271V108.594L141.558 91.3865H110.578L103.785 84.5854" stroke="#41C7CF" stroke-width="2.78" stroke-linecap="round" stroke-linejoin="round"></path><path d="M235.048 80.6035C235.048 82.0723 236.237 83.2627 237.704 83.2627C239.171 83.2627 240.36 82.0723 240.36 80.6035C240.36 79.1347 239.171 77.9443 237.704 77.9443C236.237 77.9443 235.048 79.1347 235.048 80.6035Z" stroke="#41C7CF" stroke-width="2.78" stroke-linecap="round" stroke-linejoin="round"></path><path d="M255.904 113.683C255.904 115.152 257.093 116.342 258.56 116.342C260.027 116.342 261.216 115.152 261.216 113.683C261.216 112.214 260.027 111.024 258.56 111.024C257.093 111.024 255.904 112.214 255.904 113.683Z" stroke="#41C7CF" stroke-width="2.78" stroke-linecap="round" stroke-linejoin="round"></path><path d="M226.155 97.909H233.191L237.856 93.2311L237.961 83.6665" stroke="#41C7CF" stroke-width="2.78" stroke-linecap="round" stroke-linejoin="round"></path><path d="M293.969 84.1538C296.051 84.1538 297.738 82.4646 297.738 80.3808C297.738 78.2971 296.051 76.6079 293.969 76.6079C291.888 76.6079 290.201 78.2971 290.201 80.3808C290.201 82.4646 291.888 84.1538 293.969 84.1538Z" stroke="#41C7CF" stroke-width="2.78" stroke-linecap="round" stroke-linejoin="round"></path><path d="M236.486 129.84V108.17L253.673 90.9547H284.66L291.452 84.1606" stroke="#41C7CF" stroke-width="2.78" stroke-linecap="round" stroke-linejoin="round"></path><path d="M129.168 91.3375V53.7334" stroke="#41C7CF" stroke-width="2.78" stroke-linecap="round" stroke-linejoin="round"></path><path d="M253.408 90.2585V58.6758" stroke="#41C7CF" stroke-width="2.78" stroke-linecap="round" stroke-linejoin="round"></path><path d="M253.193 78.6614H268.322L277.819 69.1525V37.0825" stroke="#41C7CF" stroke-width="2.78" stroke-linecap="round" stroke-linejoin="round"></path><path d="M242.709 175.595H275.49" stroke="#41C7CF" stroke-width="2.78" stroke-linecap="round" stroke-linejoin="round"></path><path d="M278.98 172.908C277.499 172.908 276.296 174.112 276.296 175.595C276.296 177.078 277.499 178.282 278.98 178.282C280.46 178.282 281.663 177.078 281.663 175.595C281.663 174.112 280.46 172.908 278.98 172.908Z" stroke="#41C7CF" stroke-width="2.78" stroke-linecap="round" stroke-linejoin="round"></path><path d="M236.111 166.211H311.351L314.785 170.513H336.282" stroke="#41C7CF" stroke-width="2.78" stroke-linecap="round" stroke-linejoin="round"></path><path d="M301.443 204.177C299.963 204.177 298.76 202.973 298.76 201.49C298.76 200.008 299.963 198.803 301.443 198.803C302.924 198.803 304.127 200.008 304.127 201.49C304.127 202.973 302.924 204.177 301.443 204.177Z" stroke="#41C7CF" stroke-width="2.78" stroke-linecap="round" stroke-linejoin="round"></path><path d="M231.87 194.78H271.965L278.305 201.449H298.836" stroke="#41C7CF" stroke-width="2.78" stroke-linecap="round" stroke-linejoin="round"></path><path d="M315.577 174.704C313.192 174.704 311.267 176.639 311.267 179.02C311.267 181.401 313.199 183.336 315.577 183.336C317.955 183.336 319.888 181.401 319.888 179.02C319.888 176.639 317.955 174.704 315.577 174.704Z" stroke="#41C7CF" stroke-width="2.78" stroke-linecap="round" stroke-linejoin="round"></path><path d="M221.441 185.57H288.081L294.637 179.006H311.295" stroke="#41C7CF" stroke-width="2.78" stroke-linecap="round" stroke-linejoin="round"></path><path d="M242.062 156.32H286.308L289.534 153.097H307.395" stroke="#41C7CF" stroke-width="2.78" stroke-linecap="round" stroke-linejoin="round"></path><path d="M310.356 155.805C311.839 155.805 313.04 154.602 313.04 153.118C313.04 151.634 311.839 150.431 310.356 150.431C308.874 150.431 307.673 151.634 307.673 153.118C307.673 154.602 308.874 155.805 310.356 155.805Z" stroke="#41C7CF" stroke-width="2.78" stroke-linecap="round" stroke-linejoin="round"></path><path d="M336.143 101.87C334.662 101.87 333.459 103.074 333.459 104.557C333.459 106.039 334.662 107.251 336.143 107.251C337.623 107.251 338.826 106.046 338.826 104.557C338.826 103.067 337.623 101.87 336.143 101.87Z" stroke="#41C7CF" stroke-width="2.78" stroke-linecap="round" stroke-linejoin="round"></path><path d="M264.839 202.368C263.358 202.368 262.155 203.572 262.155 205.055C262.155 206.537 263.358 207.742 264.839 207.742C266.32 207.742 267.523 206.537 267.523 205.055C267.523 203.572 266.32 202.368 264.839 202.368Z" stroke="#41C7CF" stroke-width="2.78" stroke-linecap="round" stroke-linejoin="round"></path><path d="M242.82 205.006H262.162" stroke="#41C7CF" stroke-width="2.78" stroke-linecap="round" stroke-linejoin="round"></path><path d="M241.583 214.529H267.863L274.878 207.505H320.743L327.473 214.243H335.921" stroke="#41C7CF" stroke-width="2.78" stroke-linecap="round" stroke-linejoin="round"></path><path d="M303.466 237.055C304.933 237.055 306.122 235.865 306.122 234.396C306.122 232.927 304.933 231.737 303.466 231.737C302 231.737 300.811 232.927 300.811 234.396C300.811 235.865 302 237.055 303.466 237.055Z" stroke="#41C7CF" stroke-width="2.78" stroke-linecap="round" stroke-linejoin="round"></path><path d="M320.403 250.769C318.936 250.769 317.747 251.959 317.747 253.428C317.747 254.897 318.936 256.087 320.403 256.087C321.87 256.087 323.059 254.897 323.059 253.428C323.059 251.959 321.87 250.769 320.403 250.769Z" stroke="#41C7CF" stroke-width="2.78" stroke-linecap="round" stroke-linejoin="round"></path><path d="M271.381 211.021L274.934 214.578H286.183V229.878L290.855 234.556L300.407 234.654" stroke="#41C7CF" stroke-width="2.78" stroke-linecap="round" stroke-linejoin="round"></path><path d="M289.458 266.967C287.379 266.967 285.689 268.658 285.689 270.74C285.689 272.821 287.379 274.513 289.458 274.513C291.536 274.513 293.226 272.821 293.226 270.74C293.226 268.658 291.536 266.967 289.458 266.967Z" stroke="#41C7CF" stroke-width="2.78" stroke-linecap="round" stroke-linejoin="round"></path><path d="M340.516 210.338C338.437 210.338 336.748 212.029 336.748 214.111C336.748 216.192 338.437 217.884 340.516 217.884C342.595 217.884 344.284 216.192 344.284 214.111C344.284 212.029 342.595 210.338 340.516 210.338Z" stroke="#41C7CF" stroke-width="2.78" stroke-linecap="round" stroke-linejoin="round"></path><path d="M340.439 166.748C338.36 166.748 336.671 168.439 336.671 170.52C336.671 172.602 338.36 174.293 340.439 174.293C342.518 174.293 344.207 172.602 344.207 170.52C344.207 168.439 342.518 166.748 340.439 166.748Z" stroke="#41C7CF" stroke-width="2.78" stroke-linecap="round" stroke-linejoin="round"></path><path d="M315.758 125.496C313.68 125.496 311.99 127.187 311.99 129.269C311.99 131.35 313.68 133.041 315.758 133.041C317.837 133.041 319.527 131.35 319.527 129.269C319.527 127.187 317.837 125.496 315.758 125.496Z" stroke="#41C7CF" stroke-width="2.78" stroke-linecap="round" stroke-linejoin="round"></path><path d="M240.609 223.835H262.259L279.446 241.043V262.999L286.238 268.373" stroke="#41C7CF" stroke-width="2.78" stroke-linecap="round" stroke-linejoin="round"></path><path d="M290.215 147.444C288.748 147.444 287.56 146.254 287.56 144.785C287.56 143.316 288.748 142.126 290.215 142.126C291.682 142.126 292.871 143.316 292.871 144.785C292.871 146.254 291.682 147.444 290.215 147.444Z" stroke="#41C7CF" stroke-width="2.78" stroke-linecap="round" stroke-linejoin="round"></path><path d="M272.932 156.34V149.303L277.604 144.625L287.156 144.527" stroke="#41C7CF" stroke-width="2.78" stroke-linecap="round" stroke-linejoin="round"></path><path d="M280.231 115.945C278.152 115.945 276.463 114.254 276.463 112.172C276.463 110.091 278.152 108.399 280.231 108.399C282.31 108.399 283.999 110.091 283.999 112.172C283.999 114.254 282.31 115.945 280.231 115.945Z" stroke="#41C7CF" stroke-width="2.78" stroke-linecap="round" stroke-linejoin="round"></path><path d="M241.04 145.997H262.683L279.876 128.789V116.259" stroke="#41C7CF" stroke-width="2.78" stroke-linecap="round" stroke-linejoin="round"></path><path d="M279.494 253.456H317.044" stroke="#41C7CF" stroke-width="2.78" stroke-linecap="round" stroke-linejoin="round"></path><path d="M280.572 129.053H312.115" stroke="#41C7CF" stroke-width="2.78" stroke-linecap="round" stroke-linejoin="round"></path><path d="M292.154 129.269V114.121L301.651 104.612H333.674" stroke="#41C7CF" stroke-width="2.78" stroke-linecap="round" stroke-linejoin="round"></path><path d="M151.791 175.595H119.011" stroke="#41C7CF" stroke-width="2.78" stroke-linecap="round" stroke-linejoin="round"></path><path d="M115.521 172.908C117.001 172.908 118.204 174.112 118.204 175.595C118.204 177.078 117.001 178.282 115.521 178.282C114.04 178.282 112.837 177.078 112.837 175.595C112.837 174.112 114.04 172.908 115.521 172.908Z" stroke="#41C7CF" stroke-width="2.78" stroke-linecap="round" stroke-linejoin="round"></path><path d="M158.389 166.211H83.1502L79.7157 170.513H58.2188" stroke="#41C7CF" stroke-width="2.78" stroke-linecap="round" stroke-linejoin="round"></path><path d="M93.0577 204.177C94.5385 204.177 95.7413 202.973 95.7413 201.49C95.7413 200.008 94.5385 198.803 93.0577 198.803C91.5768 198.803 90.374 200.008 90.374 201.49C90.374 202.973 91.5768 204.177 93.0577 204.177Z" stroke="#41C7CF" stroke-width="2.78" stroke-linecap="round" stroke-linejoin="round"></path><path d="M162.631 194.78H122.536L116.196 201.449H95.665" stroke="#41C7CF" stroke-width="2.78" stroke-linecap="round" stroke-linejoin="round"></path><path d="M78.916 174.704C81.3007 174.704 83.2265 176.639 83.2265 179.02C83.2265 181.401 81.2937 183.336 78.916 183.336C76.5382 183.336 74.6055 181.401 74.6055 179.02C74.6055 176.639 76.5382 174.704 78.916 174.704Z" stroke="#41C7CF" stroke-width="2.78" stroke-linecap="round" stroke-linejoin="round"></path><path d="M173.059 185.57H106.42L99.8641 179.006H83.2061" stroke="#41C7CF" stroke-width="2.78" stroke-linecap="round" stroke-linejoin="round"></path><path d="M152.438 156.32H108.193L104.967 153.097H87.1064" stroke="#41C7CF" stroke-width="2.78" stroke-linecap="round" stroke-linejoin="round"></path><path d="M84.1446 155.805C85.6267 155.805 86.8282 154.602 86.8282 153.118C86.8282 151.634 85.6267 150.431 84.1446 150.431C82.6624 150.431 81.4609 151.634 81.4609 153.118C81.4609 154.602 82.6624 155.805 84.1446 155.805Z" stroke="#41C7CF" stroke-width="2.78" stroke-linecap="round" stroke-linejoin="round"></path><path d="M58.3584 101.87C59.8393 101.87 61.0421 103.074 61.0421 104.557C61.0421 106.039 59.8393 107.251 58.3584 107.251C56.8776 107.251 55.6748 106.046 55.6748 104.557C55.6748 103.067 56.8776 101.87 58.3584 101.87Z" stroke="#41C7CF" stroke-width="2.78" stroke-linecap="round" stroke-linejoin="round"></path><path d="M129.662 202.368C131.143 202.368 132.346 203.572 132.346 205.055C132.346 206.537 131.143 207.742 129.662 207.742C128.181 207.742 126.979 206.537 126.979 205.055C126.979 203.572 128.181 202.368 129.662 202.368Z" stroke="#41C7CF" stroke-width="2.78" stroke-linecap="round" stroke-linejoin="round"></path><path d="M151.681 205.006H132.339" stroke="#41C7CF" stroke-width="2.78" stroke-linecap="round" stroke-linejoin="round"></path><path d="M152.919 214.529H126.638L119.623 207.505H73.7582L67.0283 214.243H58.5811" stroke="#41C7CF" stroke-width="2.78" stroke-linecap="round" stroke-linejoin="round"></path><path d="M91.0347 237.055C92.5015 237.055 93.6906 235.865 93.6906 234.396C93.6906 232.927 92.5015 231.737 91.0347 231.737C89.568 231.737 88.3789 232.927 88.3789 234.396C88.3789 235.865 89.568 237.055 91.0347 237.055Z" stroke="#41C7CF" stroke-width="2.78" stroke-linecap="round" stroke-linejoin="round"></path><path d="M74.0982 250.769C75.5652 250.769 76.754 251.959 76.754 253.428C76.754 254.897 75.5652 256.087 74.0982 256.087C72.6313 256.087 71.4424 254.897 71.4424 253.428C71.4424 251.959 72.6313 250.769 74.0982 250.769Z" stroke="#41C7CF" stroke-width="2.78" stroke-linecap="round" stroke-linejoin="round"></path><path d="M123.12 211.021L119.567 214.578H108.318V229.878L103.646 234.556L94.0938 234.654" stroke="#41C7CF" stroke-width="2.78" stroke-linecap="round" stroke-linejoin="round"></path><path d="M104.919 277.207C106.997 277.207 108.687 278.899 108.687 280.98C108.687 283.061 106.997 284.753 104.919 284.753C102.84 284.753 101.15 283.061 101.15 280.98C101.15 278.899 102.84 277.207 104.919 277.207Z" stroke="#41C7CF" stroke-width="2.78" stroke-linecap="round" stroke-linejoin="round"></path><path d="M53.985 210.338C56.0638 210.338 57.7532 212.03 57.7532 214.111C57.7532 216.193 56.0638 217.884 53.985 217.884C51.9062 217.884 50.2168 216.193 50.2168 214.111C50.2168 212.03 51.9062 210.338 53.985 210.338Z" stroke="#41C7CF" stroke-width="2.78" stroke-linecap="round" stroke-linejoin="round"></path><path d="M54.0612 166.748C56.14 166.748 57.8294 168.439 57.8294 170.52C57.8294 172.602 56.14 174.293 54.0612 174.293C51.9824 174.293 50.293 172.602 50.293 170.52C50.293 168.439 51.9824 166.748 54.0612 166.748Z" stroke="#41C7CF" stroke-width="2.78" stroke-linecap="round" stroke-linejoin="round"></path><path d="M78.7428 125.496C80.8216 125.496 82.5111 127.187 82.5111 129.269C82.5111 131.35 80.8216 133.041 78.7428 133.041C76.6641 133.041 74.9746 131.35 74.9746 129.269C74.9746 127.187 76.6641 125.496 78.7428 125.496Z" stroke="#41C7CF" stroke-width="2.78" stroke-linecap="round" stroke-linejoin="round"></path><path d="M128.738 105.615C130.817 105.615 132.506 107.306 132.506 109.388C132.506 111.469 130.817 113.161 128.738 113.161C126.659 113.161 124.97 111.469 124.97 109.388C124.97 107.306 126.659 105.615 128.738 105.615Z" stroke="#41C7CF" stroke-width="2.78" stroke-linecap="round" stroke-linejoin="round"></path><path d="M153.892 223.836H132.242L115.055 241.044V272.07L108.263 278.864" stroke="#41C7CF" stroke-width="2.78" stroke-linecap="round" stroke-linejoin="round"></path><path d="M104.286 147.444C105.753 147.444 106.942 146.254 106.942 144.785C106.942 143.316 105.753 142.126 104.286 142.126C102.819 142.126 101.63 143.316 101.63 144.785C101.63 146.254 102.819 147.444 104.286 147.444Z" stroke="#41C7CF" stroke-width="2.78" stroke-linecap="round" stroke-linejoin="round"></path><path d="M121.569 156.34V149.303L116.897 144.625L107.345 144.527" stroke="#41C7CF" stroke-width="2.78" stroke-linecap="round" stroke-linejoin="round"></path><path d="M153.46 145.996H131.817L114.624 128.789V109.52L124.448 109.381" stroke="#41C7CF" stroke-width="2.78" stroke-linecap="round" stroke-linejoin="round"></path><path d="M115.006 253.456H77.4492" stroke="#41C7CF" stroke-width="2.78" stroke-linecap="round" stroke-linejoin="round"></path><path d="M113.929 129.053H82.3857" stroke="#41C7CF" stroke-width="2.78" stroke-linecap="round" stroke-linejoin="round"></path><path d="M102.346 129.269V114.121L92.8492 104.612H60.8193" stroke="#41C7CF" stroke-width="2.78" stroke-linecap="round" stroke-linejoin="round"></path><path d="M206.925 242.693V275.515" stroke="#41C7CF" stroke-width="2.78" stroke-linecap="round" stroke-linejoin="round"></path><path d="M209.615 279.01C209.615 277.527 208.413 276.323 206.932 276.323C205.451 276.323 204.248 277.527 204.248 279.01C204.248 280.492 205.451 281.697 206.932 281.697C208.413 281.697 209.615 280.492 209.615 279.01Z" stroke="#41C7CF" stroke-width="2.78" stroke-linecap="round" stroke-linejoin="round"></path><path d="M216.297 236.087V283.145L212 286.59V297.7" stroke="#41C7CF" stroke-width="2.78" stroke-linecap="round" stroke-linejoin="round"></path><path d="M178.377 301.501C178.377 300.019 179.58 298.814 181.061 298.814C182.541 298.814 183.744 300.019 183.744 301.501C183.744 302.984 182.541 304.188 181.061 304.188C179.58 304.188 178.377 302.984 178.377 301.501Z" stroke="#41C7CF" stroke-width="2.78" stroke-linecap="round" stroke-linejoin="round"></path><path d="M165.536 325.845C165.536 324.362 166.739 323.158 168.22 323.158C169.701 323.158 170.903 324.362 170.903 325.845C170.903 327.327 169.701 328.532 168.22 328.532C166.739 328.532 165.536 327.327 165.536 325.845Z" stroke="#41C7CF" stroke-width="2.78" stroke-linecap="round" stroke-linejoin="round"></path><path d="M187.77 231.841V271.986L181.103 278.335V298.891" stroke="#41C7CF" stroke-width="2.78" stroke-linecap="round" stroke-linejoin="round"></path><path d="M207.821 315.653C207.821 313.266 205.888 311.337 203.511 311.337C201.133 311.337 199.2 313.273 199.2 315.653C199.2 318.034 201.133 319.969 203.511 319.969C205.888 319.969 207.821 318.034 207.821 315.653Z" stroke="#41C7CF" stroke-width="2.78" stroke-linecap="round" stroke-linejoin="round"></path><path d="M196.962 221.399V288.122L203.518 294.686V311.365" stroke="#41C7CF" stroke-width="2.78" stroke-linecap="round" stroke-linejoin="round"></path><path d="M226.176 242.046V286.347L229.402 289.577V307.46" stroke="#41C7CF" stroke-width="2.78" stroke-linecap="round" stroke-linejoin="round"></path><path d="M232.057 310.425C232.057 308.943 230.854 307.738 229.373 307.738C227.892 307.738 226.689 308.943 226.689 310.425C226.689 311.908 227.892 313.119 229.373 313.119C230.854 313.119 232.057 311.915 232.057 310.425Z" stroke="#41C7CF" stroke-width="2.78" stroke-linecap="round" stroke-linejoin="round"></path><path d="M214.899 300.812C214.899 299.329 213.696 298.125 212.215 298.125C210.734 298.125 209.531 299.329 209.531 300.812C209.531 302.295 210.734 303.499 212.215 303.499C213.696 303.499 214.899 302.295 214.899 300.812Z" stroke="#41C7CF" stroke-width="2.78" stroke-linecap="round" stroke-linejoin="round"></path><path d="M180.186 264.851C180.186 263.368 178.983 262.164 177.502 262.164C176.021 262.164 174.818 263.368 174.818 264.851C174.818 266.333 176.021 267.538 177.502 267.538C178.983 267.538 180.186 266.333 180.186 264.851Z" stroke="#41C7CF" stroke-width="2.78" stroke-linecap="round" stroke-linejoin="round"></path><path d="M177.558 242.805V262.171" stroke="#41C7CF" stroke-width="2.78" stroke-linecap="round" stroke-linejoin="round"></path><path d="M168.046 241.566V267.879L175.054 274.903V307.752L168.324 314.491V322.942" stroke="#41C7CF" stroke-width="2.78" stroke-linecap="round" stroke-linejoin="round"></path><path d="M148.204 306.186C149.67 306.186 150.86 304.995 150.86 303.527C150.86 302.058 149.67 300.868 148.204 300.868C146.737 300.868 145.548 302.058 145.548 303.527C145.548 304.995 146.737 306.186 148.204 306.186Z" stroke="#41C7CF" stroke-width="2.78" stroke-linecap="round" stroke-linejoin="round"></path><path d="M171.543 271.401L167.99 274.959V286.222H152.709L148.044 290.9L147.939 300.464" stroke="#41C7CF" stroke-width="2.78" stroke-linecap="round" stroke-linejoin="round"></path><path d="M133.361 251.186C133.361 249.105 131.671 247.413 129.592 247.413C127.514 247.413 125.824 249.105 125.824 251.186C125.824 253.267 127.514 254.959 129.592 254.959C131.671 254.959 133.361 253.267 133.361 251.186Z" stroke="#41C7CF" stroke-width="2.78" stroke-linecap="round" stroke-linejoin="round"></path><path d="M158.751 240.591V262.268L141.558 279.476H129.384L129.592 255.05" stroke="#41C7CF" stroke-width="2.78" stroke-linecap="round" stroke-linejoin="round"></path><path d="M235.048 290.259C235.048 288.79 236.237 287.6 237.704 287.6C239.171 287.6 240.36 288.79 240.36 290.259C240.36 291.728 239.171 292.918 237.704 292.918C236.237 292.918 235.048 291.728 235.048 290.259Z" stroke="#41C7CF" stroke-width="2.78" stroke-linecap="round" stroke-linejoin="round"></path><path d="M255.127 269.849C256.593 269.849 257.782 268.659 257.782 267.19C257.782 265.721 256.593 264.531 255.127 264.531C253.66 264.531 252.471 265.721 252.471 267.19C252.471 268.659 253.66 269.849 255.127 269.849Z" stroke="#41C7CF" stroke-width="2.78" stroke-linecap="round" stroke-linejoin="round"></path><path d="M226.155 272.954H233.191L237.856 277.632L237.961 287.196" stroke="#41C7CF" stroke-width="2.78" stroke-linecap="round" stroke-linejoin="round"></path><path d="M289.325 289.73C289.325 287.649 291.015 285.957 293.093 285.957C295.172 285.957 296.862 287.649 296.862 289.73C296.862 291.811 295.172 293.503 293.093 293.503C291.015 293.503 289.325 291.811 289.325 289.73Z" stroke="#41C7CF" stroke-width="2.78" stroke-linecap="round" stroke-linejoin="round"></path><path d="M236.486 241.023V262.693L253.673 279.908H284.66L291.452 286.702" stroke="#41C7CF" stroke-width="2.78" stroke-linecap="round" stroke-linejoin="round"></path><path d="M170.848 122.238H165.272V130.619H170.848V122.238Z" fill="#4A4A4A"></path><path d="M161.351 122.238H155.775V130.619H161.351V122.238Z" fill="#4A4A4A"></path><path d="M180.506 122.238H174.93V130.619H180.506V122.238Z" fill="#4A4A4A"></path><path d="M190.155 122.238H184.579V130.619H190.155V122.238Z" fill="#4A4A4A"></path><path d="M199.812 122.238H194.236V130.619H199.812V122.238Z" fill="#4A4A4A"></path><path d="M209.469 122.238H203.894V130.619H209.469V122.238Z" fill="#4A4A4A"></path><path d="M219.126 122.238H213.55V130.619H219.126V122.238Z" fill="#4A4A4A"></path><path d="M228.783 122.238H223.207V130.619H228.783V122.238Z" fill="#4A4A4A"></path><path d="M238.44 122.238H232.864V130.619H238.44V122.238Z" fill="#4A4A4A"></path><path d="M170.848 240.515H165.272V248.896H170.848V240.515Z" fill="#4A4A4A"></path><path d="M161.296 240.515H155.72V248.896H161.296V240.515Z" fill="#4A4A4A"></path><path d="M180.506 240.515H174.93V248.896H180.506V240.515Z" fill="#4A4A4A"></path><path d="M190.155 240.515H184.579V248.896H190.155V240.515Z" fill="#4A4A4A"></path><path d="M199.812 240.515H194.236V248.896H199.812V240.515Z" fill="#4A4A4A"></path><path d="M209.469 240.515H203.894V248.896H209.469V240.515Z" fill="#4A4A4A"></path><path d="M219.126 240.515H213.55V248.896H219.126V240.515Z" fill="#4A4A4A"></path><path d="M228.783 240.515H223.207V248.896H228.783V240.515Z" fill="#4A4A4A"></path><path d="M239.191 240.515H233.615V248.896H239.191V240.515Z" fill="#4A4A4A"></path><path d="M260.111 159.25V153.667H251.741V159.25H260.111Z" fill="#4A4A4A"></path><path d="M260.118 148.934V143.351H251.747V148.934H260.118Z" fill="#4A4A4A"></path><path d="M260.111 168.919V163.336H251.741V168.919H260.111Z" fill="#4A4A4A"></path><path d="M260.111 178.588V173.005H251.741V178.588H260.111Z" fill="#4A4A4A"></path><path d="M260.118 188.25V182.667H251.747V188.25H260.118Z" fill="#4A4A4A"></path><path d="M260.118 197.919V192.336H251.747V197.919H260.118Z" fill="#4A4A4A"></path><path d="M260.118 207.589V202.006H251.747V207.589H260.118Z" fill="#4A4A4A"></path><path d="M260.118 217.258V211.675H251.747V217.258H260.118Z" fill="#4A4A4A"></path><path d="M260.118 226.39V220.808H251.747V226.39H260.118Z" fill="#4A4A4A"></path><path d="M142.629 159.243V153.661H134.258V159.243H142.629Z" fill="#4A4A4A"></path><path d="M142.629 149.038V143.456H134.258V149.038H142.629Z" fill="#4A4A4A"></path><path d="M142.629 168.912V163.33H134.258V168.912H142.629Z" fill="#4A4A4A"></path><path d="M142.629 178.581V172.999H134.258V178.581H142.629Z" fill="#4A4A4A"></path><path d="M142.636 188.25V182.667H134.265V188.25H142.636Z" fill="#4A4A4A"></path><path d="M142.636 197.92V192.337H134.265V197.92H142.636Z" fill="#4A4A4A"></path><path d="M142.636 207.581V201.999H134.265V207.581H142.636Z" fill="#4A4A4A"></path><path d="M142.636 217.251V211.668H134.265V217.251H142.636Z" fill="#4A4A4A"></path><path d="M142.629 226.599V221.017H134.258V226.599H142.629Z" fill="#4A4A4A"></path><path d="M237.793 130.027H156.269C148.206 130.027 141.669 136.572 141.669 144.646V226.272C141.669 234.346 148.206 240.89 156.269 240.89H237.793C245.857 240.89 252.393 234.346 252.393 226.272V144.646C252.393 136.572 245.857 130.027 237.793 130.027Z" fill="#41C7CF"></path><path d="M157.778 240.89H152.946C146.716 240.89 141.669 234.834 141.669 227.358V143.567C141.669 136.09 146.716 130.034 152.946 130.034H157.778C151.548 130.034 146.501 136.09 146.501 143.567V227.358C146.501 234.834 151.548 240.89 157.778 240.89Z" fill="#21A1A9"></path><path d="M227.552 140.499H166.6C158.537 140.499 152 147.044 152 155.117V216.146C152 224.219 158.537 230.764 166.6 230.764H227.552C235.616 230.764 242.152 224.219 242.152 216.146V155.117C242.152 147.044 235.616 140.499 227.552 140.499Z" fill="white"></path><path d="M165.468 230.595C158.001 230.595 151.952 224.539 151.952 217.063V153.869C151.952 146.393 158.001 140.337 165.468 140.337H166.726C160.664 141.673 156.131 147.082 156.131 153.549V216.742C156.131 224.219 162.179 230.275 169.646 230.275" fill="#21A1A9"></path><path d="M222.359 230.258H165.516C158.049 230.258 152 224.195 152 216.726V153.532C152 146.056 158.056 140 165.516 140H228.63C236.097 140 242.145 146.063 242.145 153.532V216.726C242.145 224.202 236.09 230.258 228.63 230.258" stroke="#4A4A4A" stroke-width="2.16" stroke-linecap="round" stroke-linejoin="round"></path><path d="M141.669 218.656V143.567C141.669 136.09 147.725 130.034 155.184 130.034H238.871C246.338 130.034 252.387 136.097 252.387 143.567V227.358C252.387 234.834 246.331 240.89 238.871 240.89H155.184C147.718 240.89 141.669 234.827 141.669 227.358" stroke="#4A4A4A" stroke-width="2.16" stroke-linecap="round" stroke-linejoin="round"></path><path d="M152.41 137.907C153.151 137.907 153.752 137.306 153.752 136.564C153.752 135.822 153.151 135.22 152.41 135.22C151.669 135.22 151.068 135.822 151.068 136.564C151.068 137.306 151.669 137.907 152.41 137.907Z" fill="#4A4A4A"></path><path d="M160.989 135.186C161.408 135.186 161.747 134.846 161.747 134.427C161.747 134.008 161.408 133.668 160.989 133.668C160.571 133.668 160.231 134.008 160.231 134.427C160.231 134.846 160.571 135.186 160.989 135.186Z" fill="#4A4A4A"></path><path d="M163.165 135.186C163.584 135.186 163.923 134.846 163.923 134.427C163.923 134.008 163.584 133.668 163.165 133.668C162.747 133.668 162.407 134.008 162.407 134.427C162.407 134.846 162.747 135.186 163.165 135.186Z" fill="#4A4A4A"></path><path d="M165.342 135.186C165.76 135.186 166.1 134.846 166.1 134.427C166.1 134.008 165.76 133.668 165.342 133.668C164.923 133.668 164.584 134.008 164.584 134.427C164.584 134.846 164.923 135.186 165.342 135.186Z" fill="#4A4A4A"></path><path d="M167.511 135.186C167.929 135.186 168.269 134.846 168.269 134.427C168.269 134.008 167.929 133.668 167.511 133.668C167.092 133.668 166.753 134.008 166.753 134.427C166.753 134.846 167.092 135.186 167.511 135.186Z" fill="#4A4A4A"></path><path d="M169.687 135.186C170.105 135.186 170.444 134.846 170.444 134.427C170.444 134.008 170.105 133.668 169.687 133.668C169.268 133.668 168.929 134.008 168.929 134.427C168.929 134.846 169.268 135.186 169.687 135.186Z" fill="#4A4A4A"></path><path d="M171.855 135.186C172.274 135.186 172.613 134.846 172.613 134.427C172.613 134.008 172.274 133.668 171.855 133.668C171.437 133.668 171.098 134.008 171.098 134.427C171.098 134.846 171.437 135.186 171.855 135.186Z" fill="#4A4A4A"></path><path d="M174.032 135.186C174.451 135.186 174.79 134.846 174.79 134.427C174.79 134.008 174.451 133.668 174.032 133.668C173.614 133.668 173.274 134.008 173.274 134.427C173.274 134.846 173.614 135.186 174.032 135.186Z" fill="#4A4A4A"></path><path d="M176.208 135.186C176.627 135.186 176.966 134.846 176.966 134.427C176.966 134.008 176.627 133.668 176.208 133.668C175.789 133.668 175.45 134.008 175.45 134.427C175.45 134.846 175.789 135.186 176.208 135.186Z" fill="#4A4A4A"></path><path d="M178.377 135.186C178.795 135.186 179.135 134.846 179.135 134.427C179.135 134.008 178.795 133.668 178.377 133.668C177.958 133.668 177.619 134.008 177.619 134.427C177.619 134.846 177.958 135.186 178.377 135.186Z" fill="#4A4A4A"></path><path d="M180.554 135.186C180.972 135.186 181.312 134.846 181.312 134.427C181.312 134.008 180.972 133.668 180.554 133.668C180.135 133.668 179.796 134.008 179.796 134.427C179.796 134.846 180.135 135.186 180.554 135.186Z" fill="#4A4A4A"></path><path d="M163.131 137.323C163.549 137.323 163.889 136.983 163.889 136.564C163.889 136.145 163.549 135.805 163.131 135.805C162.712 135.805 162.373 136.145 162.373 136.564C162.373 136.983 162.712 137.323 163.131 137.323Z" fill="#4A4A4A"></path><path d="M165.3 137.323C165.718 137.323 166.058 136.983 166.058 136.564C166.058 136.145 165.718 135.805 165.3 135.805C164.881 135.805 164.542 136.145 164.542 136.564C164.542 136.983 164.881 137.323 165.3 137.323Z" fill="#4A4A4A"></path><path d="M167.477 137.323C167.895 137.323 168.234 136.983 168.234 136.564C168.234 136.145 167.895 135.805 167.477 135.805C167.058 135.805 166.719 136.145 166.719 136.564C166.719 136.983 167.058 137.323 167.477 137.323Z" fill="#4A4A4A"></path><path d="M169.652 137.323C170.071 137.323 170.41 136.983 170.41 136.564C170.41 136.145 170.071 135.805 169.652 135.805C169.234 135.805 168.895 136.145 168.895 136.564C168.895 136.983 169.234 137.323 169.652 137.323Z" fill="#4A4A4A"></path><path d="M171.821 137.323C172.24 137.323 172.579 136.983 172.579 136.564C172.579 136.145 172.24 135.805 171.821 135.805C171.403 135.805 171.063 136.145 171.063 136.564C171.063 136.983 171.403 137.323 171.821 137.323Z" fill="#4A4A4A"></path><path d="M173.998 137.323C174.417 137.323 174.756 136.983 174.756 136.564C174.756 136.145 174.417 135.805 173.998 135.805C173.58 135.805 173.24 136.145 173.24 136.564C173.24 136.983 173.58 137.323 173.998 137.323Z" fill="#4A4A4A"></path><path d="M176.167 137.323C176.586 137.323 176.925 136.983 176.925 136.564C176.925 136.145 176.586 135.805 176.167 135.805C175.748 135.805 175.409 136.145 175.409 136.564C175.409 136.983 175.748 137.323 176.167 137.323Z" fill="#4A4A4A"></path><path d="M178.343 137.323C178.761 137.323 179.101 136.983 179.101 136.564C179.101 136.145 178.761 135.805 178.343 135.805C177.924 135.805 177.585 136.145 177.585 136.564C177.585 136.983 177.924 137.323 178.343 137.323Z" fill="#4A4A4A"></path><path d="M180.519 137.323C180.937 137.323 181.276 136.983 181.276 136.564C181.276 136.145 180.937 135.805 180.519 135.805C180.1 135.805 179.761 136.145 179.761 136.564C179.761 136.983 180.1 137.323 180.519 137.323Z" fill="#4A4A4A"></path><path d="M182.688 137.323C183.107 137.323 183.446 136.983 183.446 136.564C183.446 136.145 183.107 135.805 182.688 135.805C182.27 135.805 181.931 136.145 181.931 136.564C181.931 136.983 182.27 137.323 182.688 137.323Z" fill="#4A4A4A"></path><path d="M148.44 234.883C148.859 234.883 149.198 234.544 149.198 234.125C149.198 233.705 148.859 233.366 148.44 233.366C148.022 233.366 147.683 233.705 147.683 234.125C147.683 234.544 148.022 234.883 148.44 234.883Z" fill="#4A4A4A"></path><path d="M246.185 234.883C246.603 234.883 246.942 234.544 246.942 234.125C246.942 233.705 246.603 233.366 246.185 233.366C245.766 233.366 245.427 233.705 245.427 234.125C245.427 234.544 245.766 234.883 246.185 234.883Z" fill="#4A4A4A"></path><path d="M246.185 137.879C246.603 137.879 246.942 137.54 246.942 137.121C246.942 136.702 246.603 136.362 246.185 136.362C245.766 136.362 245.427 136.702 245.427 137.121C245.427 137.54 245.766 137.879 246.185 137.879Z" fill="#4A4A4A"></path><path d="M237.188 158.248C237.223 159.375 237.237 160.593 237.265 161.93" stroke="#4A4A4A" stroke-width="1.9" stroke-linecap="round" stroke-linejoin="round"></path><path d="M223.117 144.367C223.117 144.367 230.049 143.804 233.727 147.911C235.826 150.257 236.633 152.456 236.966 155.074" stroke="#4A4A4A" stroke-width="1.9" stroke-linecap="round" stroke-linejoin="round"></path><path d="M236.778 250.754H255.126V263.646" stroke="#41C7CF" stroke-width="2.78" stroke-linecap="round" stroke-linejoin="round"></path><path d="M236.674 113.467H256.196" stroke="#41C7CF" stroke-width="2.78" stroke-linecap="round" stroke-linejoin="round"></path><path d="M182.462 176.416V194.656C182.462 197.389 184.685 199.611 187.417 199.611H205.657C208.388 199.611 210.611 197.389 210.611 194.656L210.611 176.416C210.611 173.684 208.389 171.461 205.657 171.461L187.416 171.462C184.684 171.462 182.462 173.685 182.462 176.416L182.462 176.416ZM208.369 176.416V194.656C208.369 196.152 207.152 197.368 205.658 197.368H187.417C185.922 197.368 184.706 196.152 184.706 194.656V176.416C184.706 174.921 185.922 173.705 187.417 173.705H205.657C207.152 173.705 208.368 174.922 208.368 176.416H208.369Z" fill="#F58220"></path><path d="M189.462 194.395H203.607C204.592 194.395 205.394 193.593 205.394 192.608V178.463C205.394 177.478 204.593 176.677 203.607 176.677H189.462C188.477 176.677 187.676 177.479 187.676 178.463V192.608C187.676 193.593 188.477 194.395 189.462 194.395Z" fill="#F58220"></path><path d="M189.655 169.086V166.469C189.655 165.974 189.253 165.572 188.758 165.572C188.262 165.572 187.86 165.974 187.86 166.469V169.086C187.86 169.581 188.262 169.983 188.758 169.983C189.253 169.983 189.655 169.581 189.655 169.086Z" fill="#F58220"></path><path d="M194.84 169.086V166.469C194.84 165.974 194.438 165.572 193.943 165.572C193.448 165.572 193.046 165.974 193.046 166.469V169.086C193.046 169.581 193.448 169.983 193.943 169.983C194.438 169.983 194.84 169.581 194.84 169.086Z" fill="#F58220"></path><path d="M200.026 169.086V166.469C200.026 165.974 199.624 165.572 199.129 165.572C198.633 165.572 198.231 165.974 198.231 166.469V169.086C198.231 169.581 198.634 169.983 199.129 169.983C199.624 169.983 200.026 169.581 200.026 169.086Z" fill="#F58220"></path><path d="M205.212 169.086V166.469C205.212 165.974 204.81 165.572 204.315 165.572C203.82 165.572 203.418 165.974 203.418 166.469V169.086C203.418 169.581 203.82 169.983 204.315 169.983C204.81 169.983 205.212 169.581 205.212 169.086Z" fill="#F58220"></path><path d="M189.655 204.602V201.986C189.655 201.49 189.253 201.088 188.758 201.088C188.262 201.088 187.861 201.491 187.861 201.986L187.86 204.602C187.86 205.098 188.262 205.5 188.758 205.5C189.253 205.5 189.655 205.098 189.655 204.602H189.655Z" fill="#F58220"></path><path d="M194.84 204.602V201.986C194.84 201.49 194.438 201.088 193.943 201.088C193.448 201.088 193.046 201.491 193.046 201.986V204.602C193.046 205.098 193.448 205.5 193.943 205.5C194.438 205.5 194.84 205.098 194.84 204.602Z" fill="#F58220"></path><path d="M200.026 201.986C200.026 201.491 199.624 201.089 199.129 201.089C198.633 201.089 198.231 201.491 198.231 201.986V204.603C198.231 205.098 198.634 205.5 199.129 205.5C199.624 205.5 200.026 205.098 200.026 204.603V201.986Z" fill="#F58220"></path><path d="M205.212 201.986C205.212 201.491 204.81 201.089 204.314 201.089C203.819 201.089 203.417 201.491 203.417 201.986L203.417 204.603C203.417 205.098 203.819 205.5 204.314 205.5C204.81 205.5 205.211 205.098 205.211 204.603L205.212 201.986Z" fill="#F58220"></path><path d="M212.986 178.655H215.603C216.098 178.655 216.5 178.253 216.5 177.758C216.5 177.262 216.098 176.86 215.603 176.86H212.986C212.491 176.86 212.089 177.262 212.089 177.758C212.089 178.253 212.491 178.655 212.986 178.655Z" fill="#F58220"></path><path d="M212.986 183.84H215.603C216.098 183.84 216.5 183.438 216.5 182.943C216.5 182.448 216.098 182.046 215.603 182.046H212.986C212.491 182.046 212.089 182.448 212.089 182.943C212.089 183.438 212.491 183.84 212.986 183.84Z" fill="#F58220"></path><path d="M212.986 189.025H215.603C216.098 189.025 216.5 188.623 216.5 188.128C216.5 187.633 216.098 187.231 215.603 187.231H212.986C212.491 187.231 212.089 187.633 212.089 188.128C212.089 188.623 212.491 189.025 212.986 189.025Z" fill="#F58220"></path><path d="M212.986 194.211H215.603C216.098 194.211 216.5 193.809 216.5 193.314C216.5 192.819 216.098 192.417 215.603 192.417H212.986C212.491 192.417 212.089 192.819 212.089 193.314C212.089 193.809 212.491 194.211 212.986 194.211Z" fill="#F58220"></path><path d="M177.469 178.655H180.086C180.582 178.655 180.983 178.252 180.983 177.757C180.983 177.262 180.581 176.86 180.086 176.86L177.469 176.86C176.974 176.86 176.572 177.262 176.572 177.757C176.572 178.252 176.974 178.655 177.469 178.655V178.655Z" fill="#F58220"></path><path d="M177.469 183.84H180.086C180.582 183.84 180.983 183.438 180.983 182.943C180.983 182.448 180.581 182.046 180.086 182.046H177.469C176.974 182.046 176.572 182.448 176.572 182.943C176.572 183.438 176.974 183.84 177.469 183.84Z" fill="#F58220"></path><path d="M177.469 189.025H180.086C180.582 189.025 180.983 188.623 180.983 188.128C180.983 187.633 180.581 187.231 180.086 187.231H177.469C176.974 187.231 176.572 187.633 176.572 188.128C176.572 188.623 176.974 189.025 177.469 189.025Z" fill="#F58220"></path><path d="M177.469 194.211H180.086C180.582 194.211 180.983 193.809 180.983 193.314C180.983 192.819 180.581 192.417 180.086 192.417L177.469 192.417C176.974 192.417 176.572 192.819 176.572 193.314C176.572 193.809 176.974 194.211 177.469 194.211V194.211Z" fill="#F58220"></path></g><path opacity="0.5" d="M126.673 353.998C103.742 344.425 82.9071 330.392 65.3568 312.703C47.8065 295.013 33.8849 274.013 24.3868 250.9C14.8886 227.788 10 203.016 10 177.999C10 152.982 14.8886 128.21 24.3868 105.098C33.8849 81.9853 47.8065 60.9848 65.3568 43.2952C82.9071 25.6056 103.742 11.5735 126.673 1.99999" stroke="#41C7CF" stroke-width="3" stroke-linecap="round" stroke-dasharray="8 8"></path><path opacity="0.5" d="M269.327 353.998C292.258 344.425 313.093 330.392 330.643 312.703C348.193 295.013 362.115 274.013 371.613 250.9C381.111 227.788 386 203.016 386 177.999C386 152.982 381.111 128.21 371.613 105.098C362.115 81.9853 348.193 60.9848 330.643 43.2952C313.093 25.6056 292.258 11.5735 269.327 1.99999" stroke="#41C7CF" stroke-width="3" stroke-linecap="round" stroke-dasharray="8 8"></path><path d="M18.6384 100.366L19.511 100.855L18.6384 100.366L15.3063 106.321C14.8979 107.051 14.8979 107.946 15.3063 108.676L18.6384 114.631C19.0485 115.364 19.8179 115.832 20.6679 115.832H27.3321C28.1821 115.832 28.9515 115.364 29.3616 114.631L32.6937 108.676C33.1021 107.946 33.1021 107.051 32.6937 106.321L29.3616 100.366C28.9515 99.6334 28.1821 99.1655 27.3321 99.1655L20.6679 99.1655C19.8179 99.1655 19.0485 99.6334 18.6384 100.366Z" fill="white" stroke="#FFC123" stroke-width="2"></path><path d="M20.794 102.899C20.9645 102.604 21.2795 102.422 21.6204 102.422L26.3805 102.422C26.7214 102.422 27.0364 102.604 27.2068 102.899L29.5869 107.022C29.7573 107.317 29.7573 107.681 29.5869 107.976L27.2068 112.099C27.0364 112.394 26.7214 112.576 26.3805 112.576H21.6204C21.2795 112.576 20.9645 112.394 20.794 112.099L18.414 107.976C18.2435 107.681 18.2435 107.317 18.414 107.022L20.794 102.899Z" fill="#FFC123"></path><path d="M4.63837 160.366L5.51104 160.855L4.63837 160.366L1.30629 166.321C0.897902 167.051 0.897902 167.946 1.30629 168.676L4.63837 174.631C5.04853 175.364 5.81793 175.832 6.66793 175.832H13.3321C14.1821 175.832 14.9515 175.364 15.3616 174.631L18.6937 168.676C19.1021 167.946 19.1021 167.051 18.6937 166.321L15.3616 160.366C14.9515 159.633 14.1821 159.166 13.3321 159.166L6.66793 159.166C5.81793 159.166 5.04853 159.633 4.63837 160.366Z" fill="white" stroke="#FFC123" stroke-width="2"></path><path d="M6.79402 162.899C6.96447 162.604 7.27947 162.422 7.62037 162.422L12.3805 162.422C12.7214 162.422 13.0364 162.604 13.2068 162.899L15.5869 167.022C15.7573 167.317 15.7573 167.681 15.5869 167.976L13.2068 172.099C13.0364 172.394 12.7214 172.576 12.3805 172.576H7.62037C7.27947 172.576 6.96447 172.394 6.79402 172.099L4.41397 167.976C4.24352 167.681 4.24352 167.317 4.41397 167.022L6.79402 162.899Z" fill="#FFC123"></path><path d="M12.6384 230.366L13.511 230.855L12.6384 230.366L9.30629 236.321C8.8979 237.051 8.8979 237.946 9.30629 238.676L12.6384 244.631C13.0485 245.364 13.8179 245.832 14.6679 245.832H21.3321C22.1821 245.832 22.9515 245.364 23.3616 244.631L26.6937 238.676C27.1021 237.946 27.1021 237.051 26.6937 236.321L23.3616 230.366C22.9515 229.633 22.1821 229.166 21.3321 229.166L14.6679 229.166C13.8179 229.166 13.0485 229.633 12.6384 230.366Z" fill="white" stroke="#FFC123" stroke-width="2"></path><path d="M14.794 232.899C14.9645 232.604 15.2795 232.422 15.6204 232.422L20.3805 232.422C20.7214 232.422 21.0364 232.604 21.2068 232.899L23.5869 237.022C23.7573 237.317 23.7573 237.681 23.5869 237.976L21.2068 242.099C21.0364 242.394 20.7214 242.576 20.3805 242.576H15.6204C15.2795 242.576 14.9645 242.394 14.794 242.099L12.414 237.976C12.2435 237.681 12.2435 237.317 12.414 237.022L14.794 232.899Z" fill="#FFC123"></path><path d="M367.638 103.366L368.511 103.855L367.638 103.366L364.306 109.321C363.898 110.051 363.898 110.946 364.306 111.676L367.638 117.631C368.049 118.364 368.818 118.832 369.668 118.832H376.332C377.182 118.832 377.951 118.364 378.362 117.631L381.694 111.676C382.102 110.946 382.102 110.051 381.694 109.321L378.362 103.366C377.951 102.633 377.182 102.166 376.332 102.166L369.668 102.166C368.818 102.166 368.049 102.633 367.638 103.366Z" fill="white" stroke="#FFC123" stroke-width="2"></path><path d="M369.794 105.899C369.964 105.604 370.279 105.422 370.62 105.422L375.38 105.422C375.721 105.422 376.036 105.604 376.207 105.899L378.587 110.022C378.757 110.317 378.757 110.681 378.587 110.976L376.207 115.099C376.036 115.394 375.721 115.576 375.38 115.576H370.62C370.279 115.576 369.964 115.394 369.794 115.099L367.414 110.976C367.244 110.681 367.244 110.317 367.414 110.022L369.794 105.899Z" fill="#FFC123"></path><path d="M380.638 162.366L381.511 162.855L380.638 162.366L377.306 168.321C376.898 169.051 376.898 169.946 377.306 170.676L380.638 176.631C381.049 177.364 381.818 177.832 382.668 177.832H389.332C390.182 177.832 390.951 177.364 391.362 176.631L394.694 170.676C395.102 169.946 395.102 169.051 394.694 168.321L391.362 162.366C390.951 161.633 390.182 161.166 389.332 161.166L382.668 161.166C381.818 161.166 381.049 161.633 380.638 162.366Z" fill="white" stroke="#FFC123" stroke-width="2"></path><path d="M382.794 164.899C382.964 164.604 383.279 164.422 383.62 164.422L388.38 164.422C388.721 164.422 389.036 164.604 389.207 164.899L391.587 169.022C391.757 169.317 391.757 169.681 391.587 169.976L389.207 174.099C389.036 174.394 388.721 174.576 388.38 174.576H383.62C383.279 174.576 382.964 174.394 382.794 174.099L380.414 169.976C380.244 169.681 380.244 169.317 380.414 169.022L382.794 164.899Z" fill="#FFC123"></path><path d="M370.638 232.366L371.511 232.855L370.638 232.366L367.306 238.321C366.898 239.051 366.898 239.946 367.306 240.676L370.638 246.631C371.049 247.364 371.818 247.832 372.668 247.832H379.332C380.182 247.832 380.951 247.364 381.362 246.631L384.694 240.676C385.102 239.946 385.102 239.051 384.694 238.321L381.362 232.366C380.951 231.633 380.182 231.166 379.332 231.166L372.668 231.166C371.818 231.166 371.049 231.633 370.638 232.366Z" fill="white" stroke="#FFC123" stroke-width="2"></path><path d="M372.794 234.899C372.964 234.604 373.279 234.422 373.62 234.422L378.38 234.422C378.721 234.422 379.036 234.604 379.207 234.899L381.587 239.022C381.757 239.317 381.757 239.681 381.587 239.976L379.207 244.099C379.036 244.394 378.721 244.576 378.38 244.576H373.62C373.279 244.576 372.964 244.394 372.794 244.099L370.414 239.976C370.244 239.681 370.244 239.317 370.414 239.022L372.794 234.899Z" fill="#FFC123"></path><defs><clipPath id="clip0_19340_45645"><rect width="296" height="304" fill="white" transform="translate(49.25 25.499)"></rect></clipPath></defs></svg> 