<?xml version="1.0" encoding="UTF-8"?> <svg xmlns="http://www.w3.org/2000/svg" width="512" height="532" viewBox="0 0 512 532" fill="none"> <path opacity="0.04" d="M218.069 367.421C291.426 566.114 511.809 265.85 366.527 235.83C294.24 220.893 338.958 80.9418 264.374 85.1506C189.811 89.3126 196.235 152.388 159.695 214.942C113.77 292.856 198.642 314.808 218.069 367.421Z" stroke="#7945F3" stroke-miterlimit="10"></path> <path opacity="0.07" d="M214.334 368.959C291.299 555.364 507.954 275.717 369.784 235.892C301.681 216.261 330.831 78.5683 258.733 86.986C186.687 95.3151 187.335 156.628 157.166 217.842C119.539 294.18 193.366 318.187 214.334 368.964L214.334 368.959Z" stroke="#7741F2" stroke-miterlimit="10"></path> <path opacity="0.11" d="M210.596 370.498C290.799 544.574 504.248 285.747 373.034 235.955C309.182 211.724 322.692 76.1956 253.084 88.817C183.55 101.308 178.312 160.769 154.629 220.731C125.155 295.38 188.02 321.504 210.591 370.498L210.596 370.498Z" stroke="#753CF1" stroke-miterlimit="10"></path> <path opacity="0.15" d="M206.861 372.036C289.889 533.767 500.669 295.995 376.286 236.017C316.732 207.301 314.559 73.8223 247.438 90.6526C180.421 107.305 169.287 164.879 152.095 223.626C130.762 296.543 182.593 324.779 206.856 372.036L206.861 372.036Z" stroke="#7238F0" stroke-miterlimit="10"></path> <path opacity="0.19" d="M203.122 373.575C288.521 522.992 497.155 306.494 379.54 236.08C324.304 203.009 306.423 71.4493 241.798 92.4884C177.293 113.303 160.253 168.962 149.573 226.52C136.371 297.664 177.094 328.023 203.127 373.575L203.122 373.575Z" stroke="#7033EF" stroke-miterlimit="10"></path> <path opacity="0.23" d="M199.389 375.113C286.689 512.295 493.625 317.264 382.794 236.137C331.856 198.852 298.293 69.0711 236.153 94.3139C174.16 119.296 151.193 172.999 147.041 229.41C141.934 298.744 171.476 331.246 199.394 375.108L199.389 375.113Z" stroke="#6E2EEE" stroke-miterlimit="10"></path> <path opacity="0.26" d="M195.649 376.652C284.354 501.734 489.996 328.31 386.042 236.2C339.355 194.831 290.151 66.693 230.502 96.1498C171.026 125.294 142.09 177.026 144.503 232.304C147.443 299.797 165.741 334.475 195.649 376.647L195.649 376.652Z" stroke="#6C2AED" stroke-miterlimit="10"></path> <path opacity="0.3" d="M191.916 378.19C281.535 491.365 486.199 339.591 389.296 236.262C346.776 190.919 282.02 64.3196 224.858 97.9853C167.893 131.291 132.946 181.036 141.97 235.198C152.9 300.84 159.877 337.734 191.911 378.185L191.916 378.19Z" stroke="#6A25EC" stroke-miterlimit="10"></path> <path opacity="0.34" d="M188.176 379.729C278.239 481.258 482.157 351.06 392.548 236.325C354.092 187.086 273.883 61.947 219.212 99.8163C164.765 137.284 123.754 185.052 139.437 238.093C158.299 301.889 153.876 341.062 188.176 379.729Z" stroke="#6820EB" stroke-miterlimit="10"></path> <path opacity="0.38" d="M184.443 381.268C274.521 471.474 477.849 362.643 395.803 236.388C361.304 183.3 265.753 59.5737 213.572 101.652C161.637 143.287 114.522 189.094 136.91 240.988C163.648 302.968 147.725 344.499 184.443 381.268Z" stroke="#661CEA" stroke-miterlimit="10"></path> <path opacity="0.41" d="M180.702 382.806C270.43 462.076 473.257 374.269 399.049 236.451C368.394 179.519 257.61 57.2009 207.92 103.488C158.502 149.285 105.246 193.173 134.37 243.883C168.952 304.09 141.415 348.098 180.702 382.806Z" stroke="#6417E9" stroke-miterlimit="10"></path> <path opacity="0.45" d="M176.969 384.345C266.082 453.121 468.417 385.878 402.309 236.513C375.404 175.722 249.485 54.8276 202.282 105.324C155.375 155.282 95.962 197.293 131.844 246.782C174.249 305.263 134.962 351.931 176.969 384.35L176.969 384.345Z" stroke="#6213E8" stroke-miterlimit="10"></path> <path opacity="0.49" d="M173.235 385.883C261.59 444.656 463.352 397.425 405.562 236.576C382.323 171.894 241.349 52.4548 196.636 107.154C152.247 161.275 86.6715 201.45 129.311 249.672C179.533 306.473 128.376 356.046 173.23 385.883L173.235 385.883Z" stroke="#5F0EE7" stroke-miterlimit="10"></path> <path opacity="0.53" d="M169.495 387.422C257.093 436.713 458.097 408.873 408.81 236.638C389.174 168.013 233.212 50.0763 190.985 108.99C149.108 167.278 77.3856 205.643 126.772 252.566C184.828 307.724 121.686 360.52 169.49 387.422L169.495 387.422Z" stroke="#5D09E6" stroke-miterlimit="10"></path> <path opacity="0.56" d="M165.762 388.96C252.774 429.297 452.713 420.211 412.068 236.701C395.984 164.081 225.081 47.7035 185.35 110.826C145.985 173.276 68.1213 209.857 124.255 255.466C190.155 309.013 114.97 365.418 165.767 388.966L165.762 388.96Z" stroke="#5B05E5" stroke-miterlimit="10"></path> <path opacity="0.6" d="M162.023 390.499C248.796 422.381 447.231 431.43 415.318 236.763C402.748 160.096 216.94 45.3305 179.701 112.657C142.852 179.268 58.8631 214.087 121.718 258.355C195.482 310.312 108.266 370.748 162.028 390.499L162.023 390.499Z" stroke="#5900E4" stroke-miterlimit="10"></path> <path d="M422.572 286.362C711.999 144.194 195.263 -34.3358 201.232 153.754C204.225 247.94 -15.8613 215.875 2.03533 308.016C19.9319 400.158 111.144 367.05 213.552 400.752C341.444 442.841 347.784 323.1 422.572 286.362Z" stroke="#1CA4E9" stroke-miterlimit="10"></path> <g style="mix-blend-mode:hard-light" opacity="0.94"> <path d="M425.668 290.394C696.88 146.729 210.334 -32.3902 200.569 149.848C195.717 240.388 -17.4128 226.265 6.00368 314.249C29.3471 402.218 119.232 376.84 218.335 402.964C341.867 435.998 354.077 328.32 425.673 290.394L425.668 290.394Z" stroke="#1CA4E9" stroke-miterlimit="10"></path> </g> <g style="mix-blend-mode:hard-light" opacity="0.88"> <path d="M428.766 294.43C681.742 149.623 225.563 -30.7684 199.907 145.941C187.31 232.695 -18.9576 236.653 9.97362 320.481C38.7638 404.273 127.385 386.279 223.119 405.18C342.38 428.723 360.318 333.614 428.771 294.43L428.766 294.43Z" stroke="#1CA4E9" stroke-miterlimit="10"></path> </g> <g style="mix-blend-mode:hard-light" opacity="0.81"> <path d="M431.862 298.467C666.602 152.935 241.047 -29.4331 199.237 142.035C179.043 224.877 -20.5145 247.048 13.9366 326.714C48.1736 406.333 135.463 395.902 227.892 407.392C342.786 421.672 366.501 338.981 431.862 298.462L431.862 298.467Z" stroke="#1CA4E9" stroke-miterlimit="10"></path> </g> <g style="mix-blend-mode:hard-light" opacity="0.75"> <path d="M434.959 302.499C651.509 156.711 256.865 -28.3067 198.574 138.129C170.959 216.976 -22.0657 257.437 17.9054 332.946C57.5892 408.393 143.511 405.54 232.675 409.603C343.173 414.641 372.657 344.441 434.959 302.493L434.959 302.499Z" stroke="#1CA4E9" stroke-miterlimit="10"></path> </g> <g style="mix-blend-mode:hard-light" opacity="0.69"> <path d="M438.055 306.535C636.5 160.988 273.085 -27.2792 197.911 134.222C163.083 209.038 -23.6118 267.826 21.8687 339.184C66.9993 410.453 151.532 415.21 237.453 411.825C343.512 407.647 378.778 350.011 438.055 306.535Z" stroke="#1CA4E9" stroke-miterlimit="10"></path> </g> <g style="mix-blend-mode:hard-light" opacity="0.62"> <path d="M441.152 310.567C621.638 165.817 289.718 -26.2205 197.243 130.316C155.412 201.126 -25.1623 278.221 25.8381 345.416C76.4207 412.513 159.527 424.9 242.237 414.036C343.831 400.69 384.888 355.696 441.152 310.567Z" stroke="#1CA4E9" stroke-miterlimit="10"></path> </g> <g style="mix-blend-mode:hard-light" opacity="0.56"> <path d="M444.249 314.604C606.989 171.221 306.737 -25.0103 196.579 126.41C147.923 193.287 -26.714 288.61 29.8063 351.649C85.8357 414.573 167.512 434.642 247.015 416.253C344.122 393.795 390.997 361.522 444.249 314.604Z" stroke="#1CA4E9" stroke-miterlimit="10"></path> </g> <g style="mix-blend-mode:hard-light" opacity="0.5"> <path d="M447.346 318.64C592.629 177.224 324.086 -23.5449 195.916 122.508C140.581 185.563 -28.2641 299.004 33.7761 357.887C95.2523 416.633 175.492 444.432 251.799 418.469C344.421 386.958 397.155 367.493 447.346 318.64Z" stroke="#1CA4E9" stroke-miterlimit="10"></path> </g> <g style="mix-blend-mode:hard-light" opacity="0.44"> <path d="M450.444 322.672C578.65 183.811 341.665 -21.7663 195.254 118.597C133.328 177.959 -29.8143 309.388 37.7458 364.114C104.669 418.688 183.483 454.268 256.584 420.681C344.735 380.178 403.397 373.632 450.449 322.672L450.444 322.672Z" stroke="#1CA4E9" stroke-miterlimit="10"></path> </g> <g style="mix-blend-mode:hard-light" opacity="0.38"> <path d="M453.539 326.709C565.127 190.961 359.382 -19.644 194.583 114.695C126.12 170.501 -31.3675 319.782 41.7074 370.351C114.077 420.753 191.497 464.156 261.36 422.897C345.073 373.455 409.771 379.953 453.539 326.709Z" stroke="#1CA4E9" stroke-miterlimit="10"></path> </g> <g style="mix-blend-mode:hard-light" opacity="0.31"> <path d="M456.638 330.745C552.173 198.597 377.16 -17.1977 193.922 110.789C118.931 163.168 -32.9162 330.172 45.6785 376.589C123.495 422.819 199.562 474.082 266.141 425.114C345.466 366.779 416.364 386.457 456.638 330.745Z" stroke="#1CA4E9" stroke-miterlimit="10"></path> </g> <g style="mix-blend-mode:hard-light" opacity="0.25"> <path d="M459.729 334.777C539.853 206.597 394.926 -14.465 193.253 106.883C111.718 155.944 -34.4677 340.561 49.6417 382.816C132.905 424.868 207.661 484.017 270.918 427.325C345.91 360.113 423.251 393.138 459.729 334.777Z" stroke="#1CA4E9" stroke-miterlimit="10"></path> </g> <g style="mix-blend-mode:hard-light" opacity="0.19"> <path d="M462.825 338.814C528.265 214.811 412.634 -11.4816 192.59 102.977C104.475 148.81 -36.0192 350.95 53.6101 389.054C142.326 426.934 215.818 493.968 275.702 429.542C346.411 353.464 430.551 399.975 462.83 338.814L462.825 338.814Z" stroke="#1CA4E9" stroke-miterlimit="10"></path> </g> <g style="mix-blend-mode:hard-light" opacity="0.12"> <path d="M465.92 342.845C517.453 223.015 430.257 -8.30522 191.925 99.0703C97.1776 141.754 -37.5719 361.345 57.5721 395.287C151.734 428.994 224.01 503.909 280.478 431.758C346.963 346.809 438.373 406.922 465.92 342.851L465.92 342.845Z" stroke="#1CA4E9" stroke-miterlimit="10"></path> </g> <g style="mix-blend-mode:hard-light" opacity="0.06"> <path d="M469.019 346.882C507.429 230.927 447.78 -4.96725 191.258 95.164C89.8373 134.754 -39.1207 371.734 61.5432 401.519C161.152 431.049 232.248 513.834 285.259 433.97C347.555 340.123 446.825 413.88 469.019 346.882Z" stroke="#1CA4E9" stroke-miterlimit="10"></path> </g> <path opacity="0.03" d="M352.086 127.135C314.867 -185.901 -86.5824 186.289 104.489 274.409C199.523 318.234 92.5666 509.302 196.98 525.84C301.341 542.436 312.835 448.245 383.508 367.88C472.114 267.91 361.935 209.946 352.086 127.14L352.086 127.135Z" stroke="#2AEFFF" stroke-miterlimit="10"></path> <path opacity="0.05" d="M357.743 126.024C311.531 -170.302 -78.1261 172.999 100.01 273.329C187.717 322.724 103.039 515.247 205.363 524.875C307.594 534.618 326.483 444.766 387.933 364.417C464.548 264.244 370.297 206.571 357.738 126.024L357.743 126.024Z" stroke="#2AEFFF" stroke-miterlimit="10"></path> <path opacity="0.07" d="M363.404 124.908C308.68 -154.531 -69.844 159.397 95.5392 272.244C175.857 327.048 113.514 521.187 213.76 523.905C313.86 526.794 340.285 441.454 392.371 360.948C457.179 260.78 378.752 203.275 363.404 124.902L363.404 124.908Z" stroke="#2AEFFF" stroke-miterlimit="10"></path> <path opacity="0.1" d="M369.06 123.797C306.377 -138.597 -61.6603 145.436 91.0642 271.17C163.972 331.194 123.985 527.144 222.148 522.945C320.117 518.982 354.077 438.194 396.8 357.491C449.801 257.375 387.28 200.083 369.06 123.797Z" stroke="#2AEFFF" stroke-miterlimit="10"></path> <path opacity="0.12" d="M374.72 122.681C304.695 -122.56 -53.462 131.067 86.588 270.085C152.111 335.121 134.455 533.084 230.539 521.98C326.383 511.163 367.884 434.971 401.233 354.027C442.437 254.026 395.927 196.959 374.72 122.681Z" stroke="#2AEFFF" stroke-miterlimit="10"></path> <path opacity="0.15" d="M380.38 121.57C303.687 -106.46 -45.133 116.308 82.1173 269.005C140.33 338.861 144.93 539.035 238.931 521.016C332.644 503.346 381.712 431.8 405.666 350.564C435.104 250.736 404.7 193.893 380.375 121.57L380.38 121.57Z" stroke="#2AEFFF" stroke-miterlimit="10"></path> <path opacity="0.18" d="M386.036 120.454C303.399 -90.3751 -36.5528 101.193 77.6419 267.926C128.674 342.434 155.401 544.981 247.323 520.051C338.905 495.528 395.582 428.671 410.1 347.102C427.83 247.497 413.641 190.873 386.036 120.454Z" stroke="#2AEFFF" stroke-miterlimit="10"></path> <path opacity="0.2" d="M391.698 119.343C303.866 -74.385 -27.6161 85.8178 73.1679 266.841C117.176 345.881 165.873 550.921 255.711 519.086C345.163 487.71 409.512 425.573 414.53 343.638C420.619 244.294 422.755 187.853 391.693 119.337L391.698 119.343Z" stroke="#2AEFFF" stroke-miterlimit="10"></path> <path opacity="0.23" d="M397.353 118.227C305.082 -58.5823 -18.2794 70.2861 68.697 265.761C105.853 349.271 176.348 556.871 264.108 518.121C351.434 479.892 423.512 422.48 418.968 340.18C413.501 241.108 432.102 184.802 397.359 118.232L397.353 118.227Z" stroke="#2AEFFF" stroke-miterlimit="10"></path> <path opacity="0.25" d="M403.014 117.116C307.034 -43.0767 -8.52468 54.6972 64.2211 264.681C94.6929 352.64 186.818 562.817 272.495 517.156C357.69 472.074 437.57 419.366 423.396 336.717C406.45 237.89 441.679 181.652 403.014 117.116Z" stroke="#2AEFFF" stroke-miterlimit="10"></path> <path opacity="0.28" d="M408.675 116C309.651 -27.9777 1.62265 39.1502 59.7462 263.602C83.6849 356.041 197.29 568.763 280.887 516.191C363.952 464.256 451.691 416.222 427.831 333.254C399.474 234.636 451.54 178.335 408.67 116L408.675 116Z" stroke="#2AEFFF" stroke-miterlimit="10"></path> <path opacity="0.3" d="M414.331 114.889C312.832 -13.4163 12.109 23.7229 55.2708 262.522C72.8019 359.498 207.76 574.714 289.279 515.232C370.214 456.443 465.849 413.035 432.264 329.796C392.539 231.329 461.692 174.757 414.331 114.894L414.331 114.889Z" stroke="#2AEFFF" stroke-miterlimit="10"></path> <path opacity="0.33" d="M419.992 113.773C316.414 0.493491 22.8665 8.46268 50.8002 261.438C62.0176 363.024 218.236 580.654 297.671 514.262C376.475 448.62 480.027 409.786 436.698 326.328C385.624 227.949 472.141 170.809 419.992 113.773Z" stroke="#2AEFFF" stroke-miterlimit="10"></path> <path opacity="0.35" d="M425.648 112.662C320.206 13.6521 33.8342 -6.60995 46.3258 260.358C51.2973 366.644 228.707 586.605 306.064 513.297C382.742 440.797 494.211 406.495 441.132 322.865C378.716 224.518 482.863 166.381 425.654 112.657L425.648 112.662Z" stroke="#2AEFFF" stroke-miterlimit="10"></path> <path opacity="0.38" d="M431.308 111.546C323.955 25.9709 44.9409 -21.4949 41.8494 259.279C40.6273 370.352 239.177 592.551 314.45 512.332C388.998 432.979 508.378 403.162 445.56 319.402C371.791 221.039 493.803 161.359 431.308 111.546Z" stroke="#2AEFFF" stroke-miterlimit="10"></path> <path opacity="0.4" d="M436.969 110.435C327.376 37.4084 56.1376 -36.192 37.3793 258.199C29.9898 374.144 249.653 598.496 322.848 511.372C395.265 425.166 522.546 399.804 449.999 315.944C364.856 217.524 504.869 155.674 436.969 110.435Z" stroke="#2AEFFF" stroke-miterlimit="10"></path> </svg> 